<?xml version="1.0" encoding="UTF-8"?>
<svg id="_레이어_2" data-name="레이어 2" xmlns="http://www.w3.org/2000/svg" viewBox="0 0 279 288">
  <defs>
    <style>
      .cls-1 {
        fill: #420909;
      }

      .cls-2 {
        fill: none;
        stroke: #420909;
        stroke-miterlimit: 10;
        stroke-width: .5px;
      }
    </style>
  </defs>
  <g id="_레이어_1-2" data-name="레이어 1">
    <g>
      <g>
        <path class="cls-1" d="M265.89,13.52c1.77-4.04-.2-5.87-3.06-7.13s-5.55-1.46-7.32,2.58c-1.67,3.82-.85,7.7,1.67,9.17-.08.41-.03.72.15.8s.44-.1.68-.43c2.8.92,6.19-1.13,7.88-4.99Z"/>
        <path class="cls-1" d="M260.69,1.88c-1.75-.22-3.87.5-4.53,2.01h0c-.36.83-.39,1.88-.09,2.77.07.22.35.28.5.11,1.68-1.97,3.93-1.6,6.33-.55s4.2,2.46,3.89,5.03c-.03.22.21.39.42.3.85-.39,1.61-1.12,1.97-1.94h0c.66-1.51.11-3.39-1.66-4.8l-2.33-1.71c.31-.57.51-.8.89-1.33.23-.32.42-.58.42-.59.1-.22-.35-.62-.99-.9s-1.24-.33-1.33-.11c0,0-.4.82-.66,2.21,0,0-.93-.31-2.83-.47Z"/>
      </g>
      <g>
        <path class="cls-1" d="M268.89,21.22c-1.46.62-2.78,2.15-2.6,3.62h0c.09.81.55,1.64,1.18,2.19.15.13.4.05.44-.14.4-2.29,2.33-3.03,4.67-3.31s4.38,0,5.3,2.14c.08.19.34.21.46.04.49-.69.74-1.6.64-2.4h0c-.17-1.47-1.45-2.68-3.47-2.98l-2.59-.27c-.02-.58.03-.85.09-1.44.03-.35.06-.64.06-.65-.02-.21-.55-.32-1.18-.25s-1.11.3-1.09.52c0,0,.06.81.49,2.02,0,0-.86.18-2.41.92Z"/>
        <path class="cls-1" d="M272.6,23.75c-2.8.33-4.97,1.39-4.51,5.33.04.31.09.6.15.9,1.24-.47,2.68,0,3.37,1.19s.42,2.6-.53,3.46c.76.52,1.6.81,2.47.81.12.35.3.58.48.56.17-.02.3-.28.34-.64,2.59-.56,4.29-3.69,3.85-7.46-.46-3.94-2.82-4.47-5.62-4.14Z"/>
      </g>
      <g>
        <path class="cls-1" d="M11.26,265.52c1.77-4.04-.2-5.87-3.06-7.13s-5.55-1.46-7.32,2.58c-1.67,3.82-.85,7.7,1.67,9.17-.08.41-.03.72.15.8s.44-.1.68-.43c2.8.92,6.19-1.13,7.88-4.99Z"/>
        <path class="cls-1" d="M6.05,253.88c-1.75-.22-3.87.5-4.53,2.01h0c-.36.83-.39,1.88-.09,2.77.07.22.35.28.5.11,1.68-1.97,3.93-1.6,6.33-.55s4.2,2.46,3.89,5.03c-.03.22.21.39.42.3.85-.39,1.61-1.12,1.97-1.94h0c.66-1.51.11-3.39-1.66-4.8l-2.33-1.71c.31-.57.51-.8.89-1.33.23-.32.42-.58.42-.59.1-.22-.35-.62-.99-.9s-1.24-.33-1.33-.11c0,0-.4.82-.66,2.21,0,0-.93-.31-2.83-.47Z"/>
      </g>
      <g>
        <path class="cls-1" d="M14.25,273.22c-1.46.62-2.78,2.15-2.6,3.62h0c.09.81.55,1.64,1.18,2.19.15.13.4.05.44-.14.4-2.29,2.33-3.03,4.67-3.31s4.38,0,5.3,2.14c.08.19.34.21.46.04.49-.69.74-1.6.64-2.4h0c-.17-1.47-1.45-2.68-3.47-2.98l-2.59-.27c-.02-.58.03-.85.09-1.44.03-.35.06-.64.06-.65-.02-.21-.55-.32-1.18-.25s-1.11.3-1.09.52c0,0,.06.81.49,2.02,0,0-.86.18-2.41.92Z"/>
        <path class="cls-1" d="M17.97,275.75c-2.8.33-4.97,1.39-4.51,5.33.04.31.09.6.15.9,1.24-.47,2.68,0,3.37,1.19s.42,2.6-.53,3.46c.76.52,1.6.81,2.47.81.12.35.3.58.48.56.17-.02.3-.28.34-.64,2.59-.56,4.29-3.69,3.85-7.46-.46-3.94-2.82-4.47-5.62-4.14Z"/>
      </g>
      <g>
        <path class="cls-2" d="M219.96,285.06c0-2.84,9.21-5.14,20.57-5.14,11.36,0,20.57,2.3,20.57,5.14"/>
        <path class="cls-2" d="M190.39,285.06c0-2.84,9.21-5.14,20.57-5.14,11.36,0,20.57,2.3,20.57,5.14"/>
        <path class="cls-2" d="M160.82,285.06c0-2.84,9.21-5.14,20.57-5.14,11.36,0,20.57,2.3,20.57,5.14"/>
        <path class="cls-2" d="M131.24,285.06c0-2.84,9.21-5.14,20.57-5.14,11.36,0,20.57,2.3,20.57,5.14"/>
        <path class="cls-2" d="M101.67,285.06c0-2.84,9.21-5.14,20.57-5.14,11.36,0,20.57,2.3,20.57,5.14"/>
        <path class="cls-2" d="M72.1,285.06c0-2.84,9.21-5.14,20.57-5.14,11.36,0,20.57,2.3,20.57,5.14"/>
        <path class="cls-2" d="M42.53,285.06c0-2.84,9.21-5.14,20.57-5.14,11.36,0,20.57,2.3,20.57,5.14"/>
      </g>
      <g>
        <path class="cls-2" d="M56.57,3.86c0,2.84-9.21,5.14-20.57,5.14-11.36,0-20.57-2.3-20.57-5.14"/>
        <path class="cls-2" d="M86.14,3.86c0,2.84-9.21,5.14-20.57,5.14-11.36,0-20.57-2.3-20.57-5.14"/>
        <path class="cls-2" d="M115.71,3.86c0,2.84-9.21,5.14-20.57,5.14-11.36,0-20.57-2.3-20.57-5.14"/>
        <path class="cls-2" d="M145.29,3.86c0,2.84-9.21,5.14-20.57,5.14-11.36,0-20.57-2.3-20.57-5.14"/>
        <path class="cls-2" d="M174.86,3.86c0,2.84-9.21,5.14-20.57,5.14-11.36,0-20.57-2.3-20.57-5.14"/>
        <path class="cls-2" d="M204.43,3.86c0,2.84-9.21,5.14-20.57,5.14-11.36,0-20.57-2.3-20.57-5.14"/>
        <path class="cls-2" d="M234,3.86c0,2.84-9.21,5.14-20.57,5.14-11.36,0-20.57-2.3-20.57-5.14"/>
      </g>
      <g>
        <path class="cls-2" d="M6.43,195.43c2.84,0,5.14,9.21,5.14,20.57s-2.3,20.57-5.14,20.57"/>
        <path class="cls-2" d="M6.43,165.86c2.84,0,5.14,9.21,5.14,20.57s-2.3,20.57-5.14,20.57"/>
        <path class="cls-2" d="M6.43,136.29c2.84,0,5.14,9.21,5.14,20.57,0,11.36-2.3,20.57-5.14,20.57"/>
        <path class="cls-2" d="M6.43,106.71c2.84,0,5.14,9.21,5.14,20.57,0,11.36-2.3,20.57-5.14,20.57"/>
        <path class="cls-2" d="M6.43,77.14c2.84,0,5.14,9.21,5.14,20.57,0,11.36-2.3,20.57-5.14,20.57"/>
        <path class="cls-2" d="M6.43,47.57c2.84,0,5.14,9.21,5.14,20.57,0,11.36-2.3,20.57-5.14,20.57"/>
        <path class="cls-2" d="M6.43,18c2.84,0,5.14,9.21,5.14,20.57,0,11.36-2.3,20.57-5.14,20.57"/>
      </g>
      <g>
        <path class="cls-2" d="M270,86.14c-2.84,0-5.14-9.21-5.14-20.57,0-11.36,2.3-20.57,5.14-20.57"/>
        <path class="cls-2" d="M270,115.71c-2.84,0-5.14-9.21-5.14-20.57s2.3-20.57,5.14-20.57"/>
        <path class="cls-2" d="M270,145.29c-2.84,0-5.14-9.21-5.14-20.57s2.3-20.57,5.14-20.57"/>
        <path class="cls-2" d="M270,174.86c-2.84,0-5.14-9.21-5.14-20.57,0-11.36,2.3-20.57,5.14-20.57"/>
        <path class="cls-2" d="M270,204.43c-2.84,0-5.14-9.21-5.14-20.57,0-11.36,2.3-20.57,5.14-20.57"/>
        <path class="cls-2" d="M270,234c-2.84,0-5.14-9.21-5.14-20.57,0-11.36,2.3-20.57,5.14-20.57"/>
        <path class="cls-2" d="M270,263.57c-2.84,0-5.14-9.21-5.14-20.57,0-11.36,2.3-20.57,5.14-20.57"/>
      </g>
    </g>
  </g>
</svg>