<?xml version="1.0" encoding="UTF-8"?>
<svg id="_레이어_2" data-name="레이어 2" xmlns="http://www.w3.org/2000/svg" viewBox="0 0 244.64 232.55">
  <defs>
    <style>
      .cls-1 {
        fill: #420909;
      }

      .cls-2 {
        fill: #870000;
      }

      .cls-3 {
        fill: #e2ccb0;
      }
    </style>
  </defs>
  <g id="_레이어_1-2" data-name="레이어 1">
    <g>
      <g>
        <path class="cls-3" d="M228.77,91.25c-8.22-8.84-22.12-12.99-33.78-15.16-17.4-3.24-53.28-4.67-71.91-4.64-18.62-.03-54.51,1.4-71.91,4.64-11.66,2.17-25.56,6.32-33.78,15.16C-1.03,111.06-1.69,147.81,6.67,171.25c7.12,19.98,19.48,38.52,40.24,46.74,30.7,12.15,50.91,4.48,67.29,9.94,2.7.9,4.97,2.93,7.56,3.98v.64c.45-.03.89-.11,1.32-.21.43.1.87.18,1.32.21v-.64c2.59-1.05,4.87-3.08,7.56-3.98,16.37-5.46,36.58,2.21,67.29-9.94,20.76-8.21,33.12-26.76,40.24-46.74,8.36-23.44,7.7-60.19-10.72-80Z"/>
        <path class="cls-1" d="M243.14,63.7c-3.16-8.56-10.53-11.98-17.12-16.7-7.25-5.19-22.74-11.25-27.83-13.09-12.46-4.5-24.51-6.23-24.51-6.23-17.86-3.35-29.66-3.51-35.78-5.55-1.76-.59-3.29-1.72-4.41-3.2,0,0,0,0-.01-.01-.11-.22-.24-.43-.32-.68h-.19c-1.2-1.62-2.17-3.01-2.64-3.8l-4.89-8.16C123.1,2.39,118.9,0,114.36,0c-4.21,0-7.29,3.97-6.23,8.04l2.1,8.06c.31,1.2.21,2.41-.19,3.49-3.52,4.78-16.5,3.72-39.79,8.09,0,0-12.04,1.72-24.51,6.23-5.1,1.84-20.58,7.9-27.83,13.09-6.6,4.72-13.96,8.13-17.12,16.7-1.84,4.98,0,9.79.73,11.15,1.34,2.51,3.51,5.98,8.38,5.89,8.42-.15,13.72-5.57,30.33-10.38,14.68-4.25,25.34-4.45,50.54-6.17l31.19-1.04,31.19,1.04c25.19,1.73,35.85,1.92,50.54,6.17,16.62,4.81,21.92,10.23,30.33,10.38,4.87.09,7.03-3.38,8.38-5.89.73-1.36,2.57-6.16.73-11.15Z"/>
      </g>
      <g>
        <g>
          <path class="cls-2" d="M134.01,170.85c-5.13,0-10.03-1.96-13.63-5.67l8.73-8.72c1.31,1.31,3.05,2.07,4.91,2.07,1.96,0,3.71-.76,5.02-2.07,2.73-2.73,2.73-7.2,0-9.93l8.72-8.73c6.87,6.87,7.53,17.67,1.85,25.19v48.86h0c-6.81,0-12.32-5.52-12.32-12.32v-28.9c-1.09.11-2.18.22-3.27.22ZM193.83,211.42h0c-2.59,0-4.81-1.59-5.93-3.92-1.48-3.08-4.58-5.29-8.27-5.24-3.87.05-5.62,1.42-8.63,6.09-1.03,1.59-2.2,3.07-4.1,3.07h-.38c-4.34,0-7.14-3.48-6.24-7.72.83-3.92,3.14-5.96,5.65-8.01.17-.14.07-.42-.15-.42h-5.45c0-2.77,2.25-5.02,5.02-5.02h11.67v-3.6c-10.47-1.2-18.65-10.14-18.65-20.94s8.18-19.74,18.65-20.94v-5.56h-18.76v-4.91h38.17c2.71,0,4.91,2.2,4.91,4.91h0s-19.3,0-19.3,0v5.67c10.36,1.2,18.43,10.03,18.43,20.83s-8.07,19.63-18.43,20.83v4.14c9.15-.34,14.39,5.52,16.92,12.95,1.29,3.79-1.13,7.77-5.13,7.77ZM177.01,167.8h-6c.76,3.05,3.05,5.45,6,6.22v-6.22ZM177.01,157.33c-2.62.76-4.8,2.84-5.78,5.56h5.78v-5.56ZM182.03,162.89h5.56c-.87-2.62-2.94-4.69-5.56-5.45v5.45ZM182.03,174.01c2.84-.87,5.13-3.27,5.78-6.22h-5.78v6.22Z"/>
          <g>
            <path class="cls-2" d="M82.13,163.98c0-3.09,2.51-5.6,5.6-5.6v-8.75h-16.7v-6.96c3.62-.79,11.77-1.11,14.98-3.99l.08-4.27c-4.63,3.97-29.48,6.28-39.33,7.05-2.27.18-4,2.08-3.97,4.36h0s8.17-.4,16.81-1.45v5.26h-16.7v8.75c3.19,0,5.77,2.59,5.77,5.77v2.71h-8.85v6.37h8.85v3.18c0,3.09-2.51,5.6-5.6,5.6v8.75h16.53v7.24c-3.22.51-8.47,1.23-20.5,2.14h0c1.72,6.49,7.94,10.75,14.62,9.99l34.92-3.95v-11.13l-17.6,2.18v-6.47h16.7v-8.75c-3.09,0-5.6-2.51-5.6-5.6v-3.18h7.44v-6.37h-7.44v-2.88ZM59.61,182.02c-2.37,0-4.29-1.92-4.29-4.29v-4.49h4.29v8.78ZM59.61,166.86h-4.29v-4.19c0-2.37,1.92-4.29,4.29-4.29v8.48ZM75.46,177.6c0,2.44-1.98,4.42-4.42,4.42v-8.78h4.42v4.36ZM75.46,166.86h-4.42v-8.48c2.44,0,4.42,1.98,4.42,4.42v4.06Z"/>
            <path class="cls-2" d="M122.15,134.52l-1.83-.12h-26.19v77.36h13.01v-13.94l2.38.18c2.89.24,6.63-1.41,8.87-4.12,2.69-3.26,2.76-4.95,3.16-7.11,1.29-6.86-3.05-15.84-9.16-22.03l9.75-30.22ZM111.28,146.62l-4.14,13.61v-19.19c2.9,0,4.98,2.8,4.14,5.58ZM114.7,179.52c.78,3.58-1.74,6.62-3.64,7.1-.37.09-2.61.54-3.91-.88v-17.57c5.03,3.76,6.61,6.98,7.56,11.35Z"/>
          </g>
        </g>
        <g>
          <path class="cls-1" d="M194.16,124.77c9.47-.83,14.52-7.85,14.96-20.4.29-7.7-1.96-12.51-4.66-15.89-.93-1.08-.88-2.7.15-3.68.98-1.03,2.6-.98,3.48.15,9.22,9.96,9.03,34.63-5.1,42.28-10.69,5.35-23,1.81-28.15-8.14-.69-1.28.1-2.8,1.37-3.24,1.37-.49,2.75.25,3.53,1.47,2.65,3.92,6.87,8.04,14.42,7.46ZM188.74,107.41c.71.4,2.19-.07,2.87-.53,2.06-1.42,4.38-.39,4.76,1.61.31,1.62-.21,2.79-1.63,4.39-3.07,2.78-8.88,4.38-12.8.65-4.46-4.22-4.76-17.51.74-27.17.81-1.73,3.33-2.27,5.09-1.62,1.89.7,3.03,2.87,2.45,4.66-1.47,2.94-2.67,6.66-2.99,10.45-.51,5.92.13,6.79,1.51,7.56Z"/>
          <g>
            <path class="cls-1" d="M66.11,117.88c.2-1.42,1.23-2.6,2.7-2.7,1.42-.05,2.65,1.08,2.55,2.5-.74,10.59-9.96,16.63-21.04,16.63-5.89.05-11.58-1.86-15.01-5.05-8.14-7.7-4.76-19.03-1.72-23.79.74-1.23,2.4-1.42,3.53-.54,1.13.83,1.32,2.45.64,3.73-4.66,8.29-2.94,20.55,12.65,20.36,11.04-.29,15.06-5.79,15.7-11.13ZM64.69,89.63c1.37,0,2.45,1.23,2.31,2.6-.1,1.42-1.28,2.4-2.7,2.35-6.82-.15-8.76.43-12.04,3.1-1.18.78-2.75.59-3.63-.49-.83-1.08-.64-2.7.49-3.43,1.68-1.73,6.64-4.71,15.57-4.12Z"/>
            <rect class="cls-1" x="32.78" y="85.65" width="10.83" height="19.08" rx="1.92" ry="1.92" transform="translate(-50.68 43.99) rotate(-38.19)"/>
            <path class="cls-1" d="M62.5,110.93h0c-1.88.58-3.88-.48-4.45-2.37l-.66-2.16-.78-2.56c-.58-1.88.48-3.88,2.37-4.45h0c1.88-.58,3.88.48,4.45,2.37l.64,2.1.8,2.61c.58,1.88-.48,3.88-2.37,4.45Z"/>
            <path class="cls-1" d="M70.32,107.51h0c-1.88.58-3.88-.48-4.45-2.37l-.66-2.16-.78-2.56c-.58-1.88.48-3.88,2.37-4.45h0c1.88-.58,3.88.48,4.45,2.37l.64,2.1.8,2.61c.58,1.88-.48,3.88-2.37,4.45Z"/>
          </g>
          <g>
            <path class="cls-1" d="M155.3,116.68c-13.51,3.05-26.95-.79-27.16-12.3.21-11.51,13.66-15.35,27.16-12.3,7.26,1.47,8.83-3.84,7.5-8.73-1.18-4.36-6.63-4.04-7.95-1.28-.89,1.86-.01,4.63,0,4.66-.02-.05-.4-.42-6.91-.78-13.28-.71-24.52,6.59-25,17.73h-.01c0,.07,0,.14,0,.21,0,.16,0,.33,0,.49,0,.16,0,.33,0,.49,0,.07,0,.14,0,.21h.01c.48,11.13,11.72,18.43,25,17.73,6.52-.37,6.89-.74,6.91-.78,0,.03-.88,2.8,0,4.66,1.32,2.77,6.77,3.08,7.95-1.28,1.32-4.89-.25-10.2-7.5-8.73Z"/>
            <path class="cls-1" d="M160.6,106.27h0c-1.88.58-3.88-.48-4.45-2.37l-.66-2.16-.78-2.56c-.58-1.88.48-3.88,2.37-4.45h0c1.88-.58,3.88.48,4.45,2.37l.64,2.1.8,2.61c.58,1.88-.48,3.88-2.37,4.45Z"/>
            <path class="cls-1" d="M168.42,102.85h0c-1.88.58-3.88-.48-4.45-2.37l-.66-2.16-.78-2.56c-.58-1.88.48-3.88,2.37-4.45h0c1.88-.58,3.88.48,4.45,2.37l.64,2.1.8,2.61c.58,1.88-.48,3.88-2.37,4.45Z"/>
          </g>
          <path class="cls-1" d="M114.26,90.98c-.17-.24-.37-.46-.61-.62-.46-.31-.88-.46-1.43-.59-.56-.07-.95-.13-1.55-.07-2.77.3-5.05,2.02-5.05,4.5s2.26,4.5,5.05,4.5h2.22c3.69,9.39-.7,20.11-11.84,20.32-11.33.15-11.87-10.89-9.86-16.63.44-1.28,1.05-3.25.79-4.55-.19-.97-.57-1.8-1.26-2.33-.97-.75-1.2-2.12-.75-3.26,1.83-4.64,2.53-7.28,3.28-11.25.34-1.37-.54-2.7-1.91-2.94-1.37-.29-2.7.59-3.04,1.96-2.45,10.3-10.5,21.93-13.34,40.32-.25,1.37.74,2.7,2.11,2.89,1.37.2,2.65-.74,2.89-2.16.98-6.72,2.6-11.84,4.91-17.68.54-1.5,1.06-.86.84-.29-2.8,10.15,1.71,21.3,15.74,20.91,17.08-.33,22.3-18.95,13.89-31.57l-1.07-1.49Z"/>
        </g>
      </g>
    </g>
  </g>
</svg>