<?xml version="1.0" encoding="UTF-8"?>
<svg xmlns="http://www.w3.org/2000/svg" viewBox="0 0 258.33 245.56">
  <defs>
    <style>
      .cls-1 {
        fill: #420909;
      }

      .cls-2 {
        isolation: isolate;
      }

      .cls-3 {
        fill: #870000;
      }

      .cls-4 {
        mix-blend-mode: multiply;
      }

      .cls-5 {
        fill: #e2ccb0;
      }
    </style>
  </defs>
  <g class="cls-2">
    <g id="_레이어_2" data-name="레이어 2">
      <g id="_레이어_1-2" data-name="레이어 1">
        <g class="cls-4">
          <g>
            <path class="cls-5" d="M241.57,96.36c-8.68-9.33-23.36-13.72-35.67-16-18.38-3.42-56.27-4.93-75.93-4.9-19.67-.04-57.56,1.48-75.93,4.9-12.31,2.29-26.99,6.67-35.67,16C-1.09,117.28-1.78,156.08,7.04,180.83c7.52,21.09,20.57,40.68,42.5,49.35,32.42,12.83,53.76,4.73,71.05,10.49,2.85.95,5.25,3.1,7.98,4.2v.68c.48-.03.94-.11,1.39-.22.45.11.91.19,1.39.22v-.68c2.74-1.11,5.14-3.25,7.98-4.2,17.29-5.77,38.63,2.33,71.05-10.49,21.92-8.67,34.98-28.26,42.5-49.35,8.82-24.75,8.13-63.55-11.32-84.47Z"/>
            <path class="cls-1" d="M256.74,67.27c-3.34-9.04-11.12-12.65-18.08-17.63-7.66-5.48-24.01-11.88-29.39-13.82-13.16-4.75-25.88-6.57-25.88-6.57-18.86-3.54-31.32-3.7-37.78-5.86-1.86-.62-3.47-1.82-4.66-3.38,0,0,0-.01-.01-.02-.12-.23-.25-.46-.33-.71h-.2c-1.27-1.71-2.29-3.18-2.79-4.01l-5.17-8.62C129.99,2.52,125.56,0,120.76,0c-4.44,0-7.7,4.19-6.58,8.49l2.22,8.51c.33,1.27.23,2.55-.2,3.69-3.72,5.05-17.42,3.93-42.02,8.55,0,0-12.72,1.82-25.88,6.57-5.38,1.94-21.73,8.34-29.39,13.82-6.96,4.99-14.74,8.59-18.08,17.63-1.95,5.26,0,10.34.77,11.77,1.42,2.65,3.71,6.32,8.85,6.22,8.89-.16,14.49-5.88,32.03-10.97,15.51-4.49,26.76-4.69,53.36-6.52l32.94-1.1,32.94,1.1c26.6,1.82,37.86,2.03,53.36,6.52,17.55,5.08,23.14,10.81,32.03,10.97,5.14.09,7.43-3.57,8.85-6.22.77-1.43,2.72-6.51.77-11.77Z"/>
          </g>
          <g>
            <g>
              <path class="cls-3" d="M141.51,180.41c-5.41,0-10.6-2.07-14.4-5.99l9.21-9.21c1.38,1.38,3.22,2.19,5.18,2.19,2.07,0,3.92-.81,5.3-2.19,2.88-2.88,2.88-7.6,0-10.48l9.21-9.21c7.26,7.26,7.95,18.66,1.96,26.6v51.6h0c-7.19,0-13.01-5.83-13.01-13.01v-30.52c-1.15.11-2.3.23-3.46.23ZM204.67,223.25h0c-2.73,0-5.08-1.68-6.26-4.14-1.57-3.26-4.83-5.59-8.73-5.53-4.09.06-5.93,1.5-9.12,6.43-1.09,1.68-2.33,3.24-4.33,3.24h-.4c-4.58,0-7.54-3.67-6.59-8.15.88-4.14,3.31-6.29,5.96-8.45.18-.15.08-.44-.16-.44h-5.75c0-2.93,2.37-5.3,5.3-5.3h12.32v-3.8c-11.06-1.27-19.69-10.71-19.69-22.11s8.64-20.85,19.69-22.11v-5.87h-19.81v-5.18h40.31c2.86,0,5.18,2.32,5.18,5.18h0s-20.39,0-20.39,0v5.99c10.94,1.27,19.46,10.6,19.46,22s-8.52,20.73-19.46,22v4.38c9.67-.36,15.2,5.83,17.87,13.68,1.36,4-1.19,8.2-5.41,8.2ZM186.92,177.19h-6.33c.81,3.22,3.22,5.76,6.33,6.56v-6.56ZM186.92,166.13c-2.76.81-5.07,2.99-6.1,5.87h6.1v-5.87ZM192.21,172h5.87c-.92-2.76-3.11-4.95-5.87-5.76v5.76ZM192.21,183.75c2.99-.92,5.41-3.46,6.1-6.56h-6.1v6.56Z"/>
              <g>
                <path class="cls-3" d="M86.73,173.15c0-3.27,2.65-5.92,5.92-5.92v-9.24h-17.63v-7.35c3.82-.84,12.43-1.17,15.82-4.21l.08-4.5c-4.89,4.19-31.13,6.63-41.53,7.45-2.4.19-4.22,2.2-4.19,4.6h0s8.63-.42,17.75-1.54v5.56h-17.63v9.24c3.37,0,6.1,2.73,6.1,6.1v2.86h-9.35v6.73h9.35v3.36c0,3.27-2.65,5.92-5.92,5.92v9.24h17.45v7.65c-3.4.54-8.94,1.29-21.65,2.26h0c1.82,6.86,8.38,11.35,15.43,10.55l36.87-4.17v-11.76l-18.58,2.3v-6.84h17.63v-9.24c-3.27,0-5.92-2.65-5.92-5.92v-3.36h7.86v-6.73h-7.86v-3.04ZM62.94,192.2c-2.5,0-4.53-2.03-4.53-4.53v-4.74h4.53v9.28ZM62.94,176.2h-4.53v-4.43c0-2.5,2.03-4.53,4.53-4.53v8.96ZM79.69,187.53c0,2.58-2.09,4.67-4.67,4.67v-9.28h4.67v4.61ZM79.69,176.2h-4.67v-8.96c2.58,0,4.67,2.09,4.67,4.67v4.29Z"/>
                <path class="cls-3" d="M128.98,142.05l-1.93-.13h-27.65v81.69h13.74v-14.72l2.52.19c3.05.25,7-1.49,9.37-4.35,2.84-3.45,2.91-5.23,3.34-7.51,1.36-7.24-3.22-16.72-9.67-23.26l10.29-31.92ZM117.51,154.83l-4.37,14.37v-20.27c3.07,0,5.26,2.96,4.37,5.89ZM121.12,189.56c.82,3.78-1.84,6.99-3.85,7.49-.4.1-2.75.57-4.13-.93v-18.55c5.32,3.97,6.98,7.37,7.98,11.99Z"/>
              </g>
            </g>
            <g>
              <path class="cls-1" d="M205.02,131.75c10-.88,15.33-8.29,15.8-21.55.31-8.13-2.07-13.21-4.92-16.78-.98-1.14-.93-2.85.16-3.88,1.04-1.09,2.74-1.04,3.68.16,9.74,10.51,9.53,36.57-5.39,44.65-11.29,5.65-24.29,1.92-29.73-8.6-.73-1.35.1-2.95,1.45-3.42,1.45-.52,2.9.26,3.73,1.55,2.8,4.14,7.25,8.49,15.23,7.87ZM199.3,113.43c.75.42,2.32-.07,3.03-.56,2.17-1.5,4.63-.41,5.03,1.7.32,1.71-.22,2.95-1.72,4.64-3.24,2.94-9.37,4.62-13.52.69-4.71-4.45-5.02-18.49.78-28.69.86-1.83,3.52-2.4,5.37-1.71,2,.74,3.2,3.03,2.59,4.92-1.55,3.11-2.82,7.03-3.16,11.03-.53,6.25.14,7.17,1.6,7.98Z"/>
              <g>
                <path class="cls-1" d="M69.81,124.48c.21-1.5,1.29-2.74,2.85-2.85,1.5-.05,2.8,1.14,2.69,2.64-.78,11.19-10.51,17.56-22.22,17.56-6.22.05-12.22-1.97-15.85-5.33-8.6-8.13-5.02-20.1-1.81-25.12.78-1.29,2.54-1.5,3.73-.57,1.19.88,1.4,2.59.67,3.94-4.92,8.75-3.11,21.7,13.36,21.5,11.65-.31,15.9-6.11,16.57-11.76ZM68.31,94.64c1.45,0,2.59,1.29,2.43,2.74-.1,1.5-1.35,2.54-2.85,2.49-7.2-.16-9.26.45-12.71,3.27-1.24.83-2.9.62-3.83-.52-.88-1.14-.67-2.85.52-3.63,1.77-1.82,7.01-4.98,16.44-4.36Z"/>
                <rect class="cls-1" x="34.62" y="90.44" width="11.43" height="20.15" rx="1.92" ry="1.92" transform="translate(-53.52 46.45) rotate(-38.19)"/>
                <path class="cls-1" d="M65.99,117.13h0c-1.99.61-4.1-.51-4.7-2.5l-.7-2.28-.83-2.7c-.61-1.99.51-4.1,2.5-4.7h0c1.99-.61,4.1.51,4.7,2.5l.68,2.22.84,2.76c.61,1.99-.51,4.1-2.5,4.7Z"/>
                <path class="cls-1" d="M74.25,113.53h0c-1.99.61-4.1-.51-4.7-2.5l-.7-2.28-.83-2.7c-.61-1.99.51-4.1,2.5-4.7h0c1.99-.61,4.1.51,4.7,2.5l.68,2.22.84,2.76c.61,1.99-.51,4.1-2.5,4.7Z"/>
              </g>
              <g>
                <path class="cls-1" d="M163.99,123.21c-14.26,3.22-28.46-.83-28.68-12.98.22-12.15,14.42-16.2,28.68-12.98,7.67,1.55,9.32-4.05,7.92-9.22-1.25-4.6-7-4.27-8.39-1.35-.94,1.96-.01,4.89,0,4.92-.02-.05-.42-.44-7.3-.83-14.02-.75-25.89,6.96-26.4,18.72h-.01c0,.07,0,.15,0,.22,0,.17,0,.35,0,.52,0,.17,0,.35,0,.52,0,.07,0,.15,0,.22h.01c.51,11.75,12.38,19.46,26.4,18.72,6.88-.39,7.28-.78,7.3-.83,0,.03-.93,2.96,0,4.92,1.39,2.92,7.15,3.26,8.39-1.35,1.4-5.17-.26-10.77-7.92-9.22Z"/>
                <path class="cls-1" d="M169.58,112.21h0c-1.99.61-4.1-.51-4.7-2.5l-.7-2.28-.83-2.7c-.61-1.99.51-4.1,2.5-4.7h0c1.99-.61,4.1.51,4.7,2.5l.68,2.22.84,2.76c.61,1.99-.51,4.1-2.5,4.7Z"/>
                <path class="cls-1" d="M177.84,108.61h0c-1.99.61-4.1-.51-4.7-2.5l-.7-2.28-.83-2.7c-.61-1.99.51-4.1,2.5-4.7h0c1.99-.61,4.1.51,4.7,2.5l.68,2.22.84,2.76c.61,1.99-.51,4.1-2.5,4.7Z"/>
              </g>
              <path class="cls-1" d="M120.66,96.07c-.18-.25-.39-.48-.65-.65-.49-.32-.93-.49-1.51-.62-.59-.08-1-.14-1.63-.07-2.93.32-5.34,2.13-5.34,4.76s2.39,4.76,5.34,4.76h2.35c3.9,9.92-.74,21.23-12.5,21.46-11.96.16-12.53-11.5-10.41-17.56.47-1.35,1.11-3.43.84-4.8-.2-1.03-.6-1.9-1.33-2.46-1.02-.79-1.27-2.24-.8-3.44,1.93-4.89,2.67-7.69,3.46-11.88.36-1.45-.57-2.85-2.02-3.11-1.45-.31-2.85.62-3.21,2.07-2.59,10.88-11.08,23.15-14.09,42.58-.26,1.45.78,2.85,2.23,3.06,1.45.21,2.8-.78,3.06-2.28,1.04-7.1,2.75-12.5,5.18-18.67.57-1.59,1.11-.91.89-.31-2.95,10.72,1.81,22.5,16.62,22.08,18.04-.34,23.54-20.01,14.66-33.34l-1.13-1.57Z"/>
            </g>
          </g>
        </g>
      </g>
    </g>
  </g>
</svg>